<?xml version="1.0" encoding="utf-8"?>
<!-- Generator: Adobe Illustrator 24.3.0, SVG Export Plug-In . SVG Version: 6.00 Build 0)  -->
<svg version="1.1" id="Laag_1" xmlns="http://www.w3.org/2000/svg" xmlns:xlink="http://www.w3.org/1999/xlink" x="0px" y="0px"
	 viewBox="0 0 1733.3 866.4" style="enable-background:new 0 0 1733.3 866.4;" xml:space="preserve">
<style type="text/css">
	.st0{fill:#7AC144;}
	.st1{fill:#9E6F6A;}
	.st2{fill:#DCF8FF;}
	.st3{fill:#95E8E6;}
	.st4{fill:#FFCE61;}
	.st5{fill:#FF8E66;}
	.st6{fill:#B0EF73;}
	.st7{fill:#8FC69E;}
	.st8{fill:#45998F;}
	.st9{fill:#FF6C61;}
	.st10{fill:#FFD400;}
	.st11{fill:#CCBCBA;}
</style>
<g id="plant_14_">
	<polygon class="st0" points="1002.1,613 945.2,539.9 870.9,485.4 800.1,465 877,466.1 954.4,514.7 1028.4,600.7 	"/>
	<path class="st0" d="M1078,598.4l-2.2-80.9l14.6-71.2l49-27.9c0,0,48.9,13.7,41.7,10.6s-57.7-34.8-57.7-34.8L1070,428l-20.6,87.7
		l-7.5,77.2L1078,598.4z"/>
	<polygon class="st0" points="1021.9,564.5 1037.5,484.3 1040.4,410.1 1090.8,368.8 1132.3,356.5 1080.4,346.8 1017,410.1 
		1007.6,493.7 	"/>
	<polygon class="st0" points="998.8,539.9 985.2,493.3 911.8,395.5 820.5,350 899.2,410.1 966.1,508.9 	"/>
	<polygon class="st0" points="992.7,474.8 989.8,431.5 1001.4,367.1 976.6,313.1 980,360.5 963.4,429.7 	"/>
</g>
<g>
	<polygon class="st0" points="1704.2,617.9 1690.2,571.6 1690.8,505.7 1682.3,468.9 1687.1,424 1689.4,467.8 1699.2,506.5 
		1702.2,568.8 1721.6,617.4 	"/>
	<polygon class="st0" points="1734.4,613.4 1722.3,565.9 1719.3,531.3 1710.1,496.7 1709.8,459.7 1701.1,435.3 1715.8,458.8 
		1716.8,493.6 1729.9,533.9 1731.8,567.5 1752.1,614.9 	"/>
	<polygon class="st0" points="1685.3,621.7 1684.7,597.1 1677.9,571.4 1678.7,535.2 1668.2,505.9 1668.8,475 1658.5,439.5 
		1663.5,473.7 1662.4,507.8 1671.8,537.3 1666.8,573 1673.4,603.9 1671.9,621.6 	"/>
	<path class="st0" d="M1663.7,621.2l-3.2-15.9l0.5-13.9l-5.4-25.1l2.6-23.6l-11.8-27.6l-14.3-9.1L1621,506l8.1,2.3l10.9,9.6
		l10.3,23.5l-3.9,26.4c0,0,6.2,24.9,6.4,25.8c0.1,0.8-0.5,32-0.5,32L1663.7,621.2z"/>
	<polygon class="st0" points="1645,627.6 1644.7,602.1 1637.9,579.2 1639.2,553.4 1629.2,537 1616.6,532.9 1607.2,538.5 
		1615.6,537.3 1624.5,540.3 1631.7,554.5 1629.7,581.3 1634.7,603.5 1632.9,631.9 	"/>
</g>
<g>
	<polygon class="st0" points="426.3,839.6 414.2,799.7 414.7,742.8 407.4,711.1 411.4,672.3 413.5,710.2 421.9,743.5 424.5,797.3 
		441.3,839.1 	"/>
	<polygon class="st0" points="452.3,835.7 441.8,794.7 439.2,764.9 431.3,735.1 431.1,703.2 423.5,682.1 436.3,702.4 437.1,732.4 
		448.4,767.1 450,796.2 467.6,837 	"/>
	<polygon class="st0" points="475.6,831.4 488.9,831.2 487.9,800.4 472.7,763.6 472.6,738.7 461.8,707.5 464.1,693 469.1,672.7 
		460.8,688.2 455.8,708.4 463.6,737.4 463.2,765 474.9,796.1 	"/>
	<polygon class="st0" points="409.9,842.9 409.4,821.6 403.5,799.4 404.3,768.3 395.2,743 395.7,716.3 386.8,685.7 391.1,715.2 
		390.1,744.7 398.3,770.1 394,800.8 399.7,827.5 398.4,842.8 	"/>
	<polygon class="st0" points="501.7,827.6 495.7,799.2 495.9,782.3 483.6,753.1 481.9,723.2 488.7,691.2 485.4,722.7 489.7,752.2 
		503,782.2 503.8,799.8 514.8,826.6 	"/>
	<path class="st0" d="M391.3,842.5l-2.8-13.7l0.5-12l-4.7-21.6l2.2-20.4L376.4,751l-12.3-7.9l-9.7-0.1l7,1.9l9.4,8.3l8.9,20.2
		l-3.3,22.8c0,0,5.4,21.5,5.5,22.2c0.1,0.7-0.4,27.6-0.4,27.6L391.3,842.5z"/>
	<polygon class="st0" points="375.2,847.9 374.9,825.9 369.1,806.2 370.2,784 361.5,769.8 350.7,766.3 342.6,771.1 349.8,770.1 
		357.5,772.6 363.7,784.9 362,808 366.3,827.2 364.7,851.7 	"/>
	<polygon class="st0" points="530.4,824.3 529.2,791.6 522.9,766.8 509.9,744.8 509.8,726.2 515.5,710.3 506,724.1 503.9,746.6 
		517.8,768.5 521.6,794.5 518.3,826 	"/>
</g>
<g>
	<polygon class="st4" points="1516.9,260.2 1488.7,241.4 1475.9,193.5 1509.4,216.5 1520.9,238.1 	"/>
	<polygon class="st4" points="1503.5,188.9 1524.9,207.5 1529.2,184.6 1511,159.7 1483.8,141.9 	"/>
	<polygon class="st4" points="1527.4,125.4 1532.1,107.5 1517.2,82.9 1489.6,67.3 1503.6,96.2 	"/>
	<path class="st5" d="M1537.5,620.5l29.9,5.8c0,0-14.8-307.2-15.3-312.8c-0.5-5.6,4.1-245.1,4.1-245.1l-13.3,3.2l-15.2,238.4
		L1537.5,620.5z"/>
	<polygon class="st4" points="1560.9,233.2 1579,212.9 1616.2,203.5 1593.3,249.3 1561.4,252.9 	"/>
	<polygon class="st4" points="1562.7,202.1 1591.9,192.9 1609.8,164.2 1578,170.7 1562.2,182.3 	"/>
	<polygon class="st4" points="1564.3,159.7 1595.9,139.2 1603.1,108 1579.5,125.5 1563.9,142.8 	"/>
	<polygon class="st4" points="1566.4,80.8 1569.5,88.5 1590.7,69.2 1597.7,42.5 1574.3,61.3 	"/>
	<polygon class="st4" points="1547.9,57.4 1561.3,59.9 1574.1,37 1573.1,0.4 1552.8,40.4 	"/>
	<polygon class="st4" points="1526.5,74.9 1537.4,65.2 1530.3,46.6 1509.7,26 1512.7,54.1 	"/>
	<polygon class="st5" points="1565.3,112.8 1608.7,73.2 1646.4,48.7 1638.8,63 1613.4,79.5 1562.9,121.4 	"/>
	<polygon class="st5" points="1529.9,143.3 1529,153.3 1482.5,112.1 1452.9,101.6 1444.5,87.7 1485.1,106.4 	"/>
</g>
<g id="plant">
	<polygon class="st0" points="179.3,813.7 140.8,741.1 83.3,683.6 22.8,657.6 92.3,666.7 153.7,719.1 205.3,805.2 	"/>
	<path class="st0" d="M250.7,808.2l12.5-73.9l26-63.4l49.4-20.3c0,0,41.8,17.6,35.9,14c-5.9-3.6-46-37.8-46-37.8L274,652.1
		l-34.4,77.8L219,799.5L250.7,808.2z"/>
	<polygon class="st0" points="205.9,771.4 234.4,700 250.4,632.7 303.5,600.3 343.3,593.4 298,579.2 229.2,630.2 205.6,705.5 	"/>
	<polygon class="st0" points="189.4,746.7 185.5,702.8 136.5,605.9 61.9,555 122.5,618 165.3,715 	"/>
	<polygon class="st0" points="195.5,686.7 200.7,646.9 222.8,589.4 210,537.6 204.6,581.2 177.1,642.5 	"/>
</g>
<polygon class="st6" points="0.2,878.4 120.1,841.6 166.1,803.5 296.3,795.5 415.4,773.9 516.6,726.7 647.2,673.2 748.9,670.3 
	798.4,642.8 939.8,566.5 1061.4,582 1247.9,593 1444.2,607.6 1548.1,579.2 1728.3,573.9 1807.6,597.7 1904.5,583.4 1957.9,977 
	8.4,906.5 "/>
<g>
	<polygon class="st7" points="1264.7,598.9 1304.7,592.8 1335.1,562.6 1396.6,573 1337.3,531.7 1297,546 	"/>
	<polygon class="st7" points="1250.6,597.9 1188.3,579.8 1168.3,551.8 1119.4,551.4 1162.2,525.1 1216.2,539.1 	"/>
	<polygon class="st7" points="1271,575.6 1293.8,525.6 1345.4,494.7 1281.1,494.9 1263.3,525.7 	"/>
	<polygon class="st7" points="1252.5,578.5 1243.3,484.2 1201.9,462.8 1155.2,451.7 1214.2,504.2 	"/>
</g>
<g>
	<polygon class="st8" points="607.7,750 668.1,729.6 644.5,635.4 568.8,457.7 546.7,307.9 526.8,297.4 532.2,449.6 563.6,540.1 
		590,597.3 	"/>
	<polyline class="st6" points="668.3,360.5 649.3,404.4 552.9,453.7 586.6,377.9 668.3,360.5 	"/>
	<polygon class="st6" points="561.9,497.1 497.4,472.4 438.1,501.2 497.6,527.7 537.7,524.7 	"/>
	<polygon class="st6" points="463.1,345.6 509.6,350 544,383 499.6,394.6 470.9,372.9 	"/>
	<polygon class="st6" points="547,344.4 558.1,309 597.6,282.2 593.1,316 571.1,343.9 	"/>
	<polyline class="st6" points="715,501.6 680.4,548.2 627.5,570.7 593.7,566.1 615,530 652.2,498.8 715,501.6 	"/>
	<polyline class="st6" points="438.2,611.3 491,649.8 550.3,659.1 599.8,608.7 528.3,592.1 438.2,611.3 	"/>
	<polygon class="st9" points="545.9,400 540.1,416.4 524.1,425.4 509.4,419.2 500,406.8 506.7,393.7 514.9,380.4 535.5,386.5 	"/>
	<polygon class="st9" points="603.8,492.6 590.9,504.2 572.5,504.5 562.6,492.1 560.2,476.7 572.4,468.4 585.9,460.6 601.1,475.7 	
		"/>
</g>
<g>
	<polygon class="st3" points="1441,492.4 1446.2,490.4 1453.3,499.4 1453.5,511 1447.4,513.9 1441.3,505.5 	"/>
	<polygon class="st3" points="1437.1,492.8 1430.9,489 1422.6,497.8 1419.5,506.5 1421.3,514.3 1429.8,510.2 1435.1,504 	"/>
	<polygon class="st3" points="1426.4,486.9 1414.6,495.4 1405.8,493.4 1407.9,483.5 1416.7,482.2 1424.1,482.3 	"/>
	<polygon class="st3" points="1431,469.8 1424.3,462.9 1419,456.8 1421.5,448.2 1431.1,451.2 1433.7,458.2 1434.5,466.8 	"/>
	<polygon class="st3" points="1440.2,468.5 1445.4,470.6 1454.1,456.3 1449.4,444.1 1439.7,450.4 	"/>
	<polygon class="st3" points="1449.9,471.5 1451.9,478.2 1464.5,476.4 1470.9,469.2 1470.5,463.6 1461.2,462 	"/>
	<polygon class="st3" points="1449.3,488.8 1450.7,483.5 1460.9,481.8 1470.8,486.8 1473.5,494.3 1464.1,496.9 	"/>
	<polygon class="st10" points="1447.8,480.7 1444.1,487.1 1436.7,489.7 1431.1,486 1428,480.1 1431.8,475.1 1436.3,470.1 
		1444.4,474.2 	"/>
	<polygon class="st3" points="1426.2,478.6 1427.7,473.6 1420.8,467.2 1410.8,464.2 1405.2,467.2 1409,475.3 1414.8,476.8 	"/>
	<polygon class="st8" points="1438,507.6 1442.7,512.1 1442,543.5 1453.2,564 1460.5,606.7 1446.8,606.7 1445.5,566.6 1435.6,540.7 
			"/>
	<polygon class="st8" points="1457.3,562.7 1461.4,546.9 1472.1,542.2 1477.4,534.5 1484.7,526.1 1484.3,545.1 1473.3,557.7 	"/>
</g>
<g>
	<polygon class="st8" points="950.6,690.3 992.4,669.7 1015.4,626.1 1086.6,616.3 1007.1,591.4 967.8,621.1 	"/>
	<polygon class="st8" points="934.8,694 860.1,695.6 828.4,671.8 774.7,688.1 812.6,644.6 876.7,641.3 	"/>
	<polygon class="st8" points="949.5,662.5 957.3,599.8 1003.3,548 932.7,570.4 923.9,610.3 	"/>
	<polygon class="st8" points="930.2,672 887.5,571.7 834.7,562.4 779.6,566.3 862.5,603.6 	"/>
</g>
<polygon class="st0" points="239.8,885.6 353,823.5 504,799.3 576.7,750.2 720.9,699.7 837,705.9 954.8,661.3 1183.7,643.9 
	1451.1,648 1776.7,632 1892.8,993 "/>
<g>
	<polygon class="st11" points="383.7,579.1 395.8,562.4 415.5,557.9 429.1,568.5 409.4,573 	"/>
	<polygon class="st11" points="378.7,579.7 375.3,561.2 358.5,552.8 345,559.5 	"/>
	<polygon class="st4" points="373.6,581.4 387.1,583.1 392.1,588.1 392.1,599.9 382,605 371.9,596.5 371.9,586.5 	"/>
	<polygon class="st1" points="378.2,601.7 392.1,590.8 392.1,588.1 389.5,585.5 374.9,599 	"/>
</g>
<g>
	<polygon class="st11" points="1307.4,403.1 1295.3,386.4 1275.6,381.9 1262,392.5 1281.7,397 	"/>
	<polygon class="st11" points="1312.5,403.7 1315.8,385.2 1332.6,376.8 1346.1,383.5 	"/>
	<polygon class="st4" points="1317.5,405.4 1304.1,407.1 1299,412.1 1299,423.9 1309.1,429 1319.2,420.5 1319.2,410.5 	"/>
	<polygon class="st1" points="1313,425.7 1299,414.8 1299,412.1 1301.6,409.5 1316.2,423 	"/>
</g>
</svg>
