<?xml version="1.0" encoding="UTF-8"?>
<svg width="325px" height="490px" viewBox="0 0 325 490" version="1.1" xmlns="http://www.w3.org/2000/svg" xmlns:xlink="http://www.w3.org/1999/xlink">
    <title>Human Copy</title>
    <g id="Design-2" stroke="none" stroke-width="1" fill="none" fill-rule="evenodd">
        <g id="Desktop-HD-Copy" transform="translate(-1067.000000, -443.000000)">
            <g id="Human-Copy" transform="translate(1067.000000, 443.000000)">
                <polygon id="Path-5" fill="#5FAFD1" points="124.183675 406.154929 170.702759 413.893897 147.443217 364.691 160.128395 302.368813 124.183675 282.141673 106.683431 348.017785"></polygon>
                <polygon id="Path-6" fill="#454545" points="206.05634 435.852601 170.702759 489.751238 188.37955 489.751238 206.05634 489.751238 236.722692 462.80192 236.722692 435.852601"></polygon>
                <polygon id="Path-7" fill="#5FAFD1" points="204.362378 425.871372 252.727524 425.871372 213.311995 366.679724 236.404662 310.14124 213.311995 294.119148 189.675339 310.14124 180.705779 359.99526"></polygon>
                <polygon id="Path-8" fill="#FED500" points="138.693095 256.949288 164.383336 278.149182 229.206802 267.549235 252.727524 194.999597 229.206802 136.415729 147.335668 159.031766 155.885311 207.282455"></polygon>
                <polygon id="Path-9" fill="#FED500" points="28.6598737 137.415193 57.4951934 120.445762 77.6763087 146.423991 130.690679 154.50583 130.690679 167.582925 120.32314 184.325628 57.4951934 167.582925"></polygon>
                <polygon id="Path-10" fill="#FED500" points="252.727524 160.889389 269.485006 136.415729 304.180913 183.811389 324.749269 236.228019 288.738397 236.228019 278.108568 186.321874"></polygon>
                <polygon id="Path-11" fill="#8E6245" points="130.690679 80.9782287 159.650323 130.426991 228.491073 118.337228 244.725108 53.9464404 228.491073 0.671012931 159.650323 16.6734734 159.650323 53.9464404"></polygon>
                <polygon id="Path-12" fill="#8E6245" points="285.224449 250.20174 324.749269 250.20174 304.986859 304.100377 285.224449 304.100377 270.73296 277.151059"></polygon>
                <polygon id="Path-13" fill="#8E6245" points="0.651417341 92.1657845 19.4659246 124.438254 54.6677259 108.302019 54.6677259 70.5396166 19.4659246 70.5396166"></polygon>
                <polygon id="Path-4" fill="#454545" points="163 434.81677 128.128472 423 88.1815925 434.81677 70 453.996447 116.5 465"></polygon>
            </g>
        </g>
    </g>
</svg>