<?xml version="1.0" encoding="utf-8"?>
<!-- Generator: Adobe Illustrator 24.3.0, SVG Export Plug-In . SVG Version: 6.00 Build 0)  -->
<svg version="1.1" id="Laag_1" xmlns="http://www.w3.org/2000/svg" xmlns:xlink="http://www.w3.org/1999/xlink" x="0px" y="0px"
	 viewBox="0 0 866.9 990" style="enable-background:new 0 0 866.9 990;" xml:space="preserve">
<style type="text/css">
	.st0{fill:#B0EF73;}
	.st1{fill:#7AC144;}
	.st2{fill:#45998F;}
	.st3{fill:#9E6F6A;}
</style>
<g>
	<polygon class="st1" points="436,146.4 354.3,50.1 228.5,21 101.4,43.2 0,104.6 128,145.8 159.9,77.9 159.5,158.1 234.8,172.1 
		262.1,91.3 266.9,170.3 337,185.5 350.5,112.1 373.7,196.5 435.7,215.1 	"/>
	<polygon class="st1" points="450.4,216.2 468.8,107.7 612.9,17.7 766.9,0 866.9,110.5 784.1,127.8 753,77.9 750.9,130.8 
		698.8,139.5 681.9,72.9 668,139.7 601.8,162.4 573,90.3 571,162.6 	"/>
	<polygon class="st1" points="466.9,262.9 397.1,221.2 285.1,229.9 172.6,333.1 92.2,454 199.5,439.1 190,385.7 242,418 
		286.1,388.5 262.1,331.1 323.2,368.9 369,330.9 364.3,278.8 396,323.5 	"/>
	<polygon class="st1" points="499.8,260.5 458.7,233.2 569.7,246.2 646.3,336.1 686.3,402.5 597.9,398.1 600.8,337.2 572.5,390.9 
		517.3,363.4 527.8,296.1 496.5,346.4 466.4,286.6 	"/>
	<polygon class="st3" points="405.4,334.8 454.2,295.7 472,333.5 431.2,469.8 447.4,732 519.7,957.4 439.8,990 399.8,962.6 
		378.7,729.2 386.2,455.9 	"/>
</g>
</svg>
