<?xml version="1.0" encoding="utf-8"?>
<!-- Generator: Adobe Illustrator 24.3.0, SVG Export Plug-In . SVG Version: 6.00 Build 0)  -->
<svg version="1.1" id="Laag_1" xmlns="http://www.w3.org/2000/svg" xmlns:xlink="http://www.w3.org/1999/xlink" x="0px" y="0px"
	 viewBox="0 0 691.6 671.1" style="enable-background:new 0 0 691.6 671.1;" xml:space="preserve">
<style type="text/css">
	.st0{fill:#7AC144;}
	.st1{fill:#9E6F6A;}
	.st2{fill:#DCF8FF;}
	.st3{fill:#95E8E6;}
	.st4{fill:#FFCE61;}
	.st5{fill:#FF8E66;}
	.st6{fill:#B0EF73;}
	.st7{fill:#8FC69E;}
	.st8{fill:#45998F;}
	.st9{fill:#FF6C61;}
	.st10{fill:#FFD400;}
</style>
<g>
	<polygon class="st4" points="239.1,272.3 317.7,230.1 432.8,281.9 457.7,366.2 371.4,469.8 221.9,410.3 	"/>
	<polygon class="st5" points="400.2,218.6 427,235.8 547.8,101.6 514.6,31.9 	"/>
	<polygon class="st5" points="478.8,297.2 657.1,237.8 691.6,278 517.9,320.4 	"/>
	<polygon class="st5" points="478.3,399.3 690.8,461.9 646.3,507.3 482.7,436.4 	"/>
	<polygon class="st5" points="400.2,481.3 379.1,500.4 400.2,663.4 457.7,655.8 	"/>
	<polygon class="st5" points="294.7,186 267.9,199.4 189.3,21.1 244.9,0 	"/>
	<polygon class="st5" points="202.7,264.6 195,297.2 3.3,243.5 22.5,163 	"/>
	<polygon class="st5" points="176.4,361.8 186,392.5 0,473 0,413.6 	"/>
	<polygon class="st5" points="271.7,469.8 248.7,464 145.2,605.9 164.3,671.1 	"/>
</g>
</svg>
