<?xml version="1.0" encoding="utf-8"?>
<!-- Generator: Adobe Illustrator 24.3.0, SVG Export Plug-In . SVG Version: 6.00 Build 0)  -->
<svg version="1.1" id="Laag_1" xmlns="http://www.w3.org/2000/svg" xmlns:xlink="http://www.w3.org/1999/xlink" x="0px" y="0px"
	 viewBox="0 0 1935.3 293.4" style="enable-background:new 0 0 1935.3 293.4;" xml:space="preserve">
<style type="text/css">
	.st0{fill:#B0EF73;}
	.st1{fill:#7AC144;}
	.st2{fill:#45998F;}
</style>
<g>
	<polygon class="st0" points="1328.7,195.1 1326.1,149.5 1340.9,89 1341.2,53.3 1355.3,13 1347.8,53.9 1348.3,91.6 1337.5,149.5 
		1344.5,198.5 	"/>
	<polygon class="st0" points="1357,197.6 1356.3,151.2 1361.1,118.8 1360.3,84.9 1368,50.8 1365.5,26.5 1373.7,51.3 1367,83.6 
		1370.2,123.5 1364.5,154.8 1372.6,202.9 	"/>
	<polygon class="st0" points="1382.5,198.9 1396.4,202.1 1403.2,168.9 1396.5,125.8 1402.7,99.3 1399.2,63.2 1405.3,48.3 1415.6,28 
		1403,42.3 1392.6,62.7 1393.5,95.6 1386.2,124.9 1390.6,161 	"/>
	<polygon class="st0" points="1310.7,194.5 1315.6,171.7 1315,146.6 1323.6,113.5 1320.5,84.3 1327.7,56 1326.1,21 1323.2,53.6 
		1314.7,84.8 1316.9,113.9 1304.6,145.7 1303.9,175.5 1298.7,191.5 	"/>
	<polygon class="st0" points="1410.7,201.4 1411.6,169.6 1416.1,151.7 1410.6,117.4 1416.3,85 1431.5,52.6 1420,85.4 1417.2,118 
		1423.5,153.3 1419.9,172.3 1424.8,203.6 	"/>
	<path class="st0" d="M1291.4,189.4l0.6-15.3l3.5-12.6l0.6-24.2l7.4-21.2l-4.7-27.9l-10.9-11.5l-10.1-2.5l6.8,3.8l7.8,11.2l4.3,23.8
		l-9.2,23.5c0,0,0.2,24.3,0.2,25.1s-7.4,29.3-7.4,29.3L1291.4,189.4z"/>
	<polygon class="st0" points="1273.1,191.1 1278.3,167.6 1277.2,145.1 1283.9,121.7 1278.4,104.4 1268,97.9 1258.2,101 
		1266.1,101.7 1273.5,106.4 1276.9,121.1 1269.3,145.2 1268.9,166.8 1261.2,192.5 	"/>
	<polygon class="st0" points="1441.7,205.1 1448.6,170 1448.3,142 1440.2,115.2 1444.8,95.3 1454.7,79.7 1441.3,92.1 1433.5,115.5 
		1442.5,142.4 1440,171.2 1428.5,204 	"/>
</g>
<g>
	<polygon class="st1" points="1736.8,271.9 1735.8,228.3 1749.7,170.5 1750.8,136.5 1763.4,98 1756.3,137 1755.7,173 1745.3,228.3 
		1749.9,275.1 	"/>
	<polygon class="st1" points="1760.2,274.3 1760.9,230 1765.6,199 1765.8,166.7 1773.1,134.1 1771.6,110.9 1777.8,134.6 
		1771.5,165.4 1773,203.5 1767.6,233.4 1773.1,279.3 	"/>
	<polygon class="st1" points="1781.4,275.5 1792.9,278.6 1799.3,246.9 1794.9,205.7 1800.6,180.4 1798.7,146 1804.1,131.8 
		1813.2,112.4 1802.3,126 1793.2,145.5 1793.1,176.9 1786.3,204.8 1789,239.3 	"/>
	<polygon class="st1" points="1721.9,271.2 1726.5,249.5 1726.7,225.5 1734.6,194 1732.8,166 1739.5,139 1739,105.7 1735.8,136.8 
		1728,166.5 1729.1,194.3 1718.1,224.6 1716.7,253.1 1712,268.4 	"/>
	<polygon class="st1" points="1804.8,277.9 1806.3,247.6 1810.4,230.4 1806.7,197.7 1812.3,166.8 1825.7,135.9 1815.4,167.2 
		1812.2,198.3 1816.6,232 1813.1,250.1 1816.4,280.1 	"/>
	<path class="st1" d="M1706,266.4l0.8-14.6l3.2-12.1l1.1-23.1l6.7-20.2l-3.2-26.7l-8.8-11l-8.3-2.4l5.6,3.7l6.2,10.7l2.9,22.8
		l-8.3,22.4c0,0-0.4,23.2-0.5,24s-6.8,28-6.8,28L1706,266.4z"/>
	<polygon class="st1" points="1690.8,268 1695.7,245.5 1695.3,224 1701.5,201.7 1697.4,185.2 1688.9,178.9 1680.7,181.9 
		1687.2,182.6 1693.2,187.1 1695.7,201.1 1688.8,224.1 1688,244.7 1680.8,269.3 	"/>
	<polygon class="st1" points="1830.4,281.5 1837,248 1837.4,221.2 1831.4,195.6 1835.7,176.6 1844.3,161.8 1832.9,173.6 1825.8,196 
		1832.6,221.6 1829.8,249.1 1819.5,280.4 	"/>
</g>
<g id="plant_14_">
	<polygon class="st1" points="89.7,270.4 77.3,192.6 44.4,121.5 0,77.2 56.9,109.7 94.5,177.6 114.4,272 	"/>
	<path class="st1" d="M152.3,290.7l31.5-61.1l40.1-47.1l48-0.7c0,0,30.8,30.2,26.7,25S270,157.2,270,157.2l-53.8,3.3l-51.3,56.9
		l-37.3,54.5L152.3,290.7z"/>
	<polygon class="st1" points="124.4,242.4 168.9,189 201.5,135 256,124.9 292,132.8 257.3,104.3 184.1,125.4 142.7,183.8 	"/>
	<polygon class="st1" points="117.3,214.6 126.3,174.3 111.7,71.3 62.4,0 96.4,77.1 105.6,178.1 	"/>
	<polygon class="st1" points="139.4,163.6 155,130.1 190.1,86.9 193.8,36.6 176.9,73.3 136.1,118 	"/>
</g>
<polygon class="st0" points="8.3,261.4 132.3,242.4 183.3,211.4 313.3,222.4 434.3,218.4 541.3,186.4 678.3,152.4 779.3,164.4 
	832.3,144.4 983.3,89.4 1101.3,122.4 1284.3,160.4 1476.3,203.4 1583.3,190.4 1762.3,211.4 1837.3,246.4 1935.3,246.4 1935.3,290.4 
	12.3,290.4 "/>
<g>
	<polygon class="st2" points="1184.3,226.7 1218,226.4 1246.7,205.2 1296.2,221.3 1252.3,180 1217.3,187 	"/>
	<polygon class="st2" points="1172.8,224.1 1123.6,201.7 1110.5,176.1 1070.3,169.9 1108.7,153.4 1151.5,171.5 	"/>
	<polygon class="st2" points="1192.3,208.2 1217.2,169.8 1263.5,150.5 1210.4,142.9 1192,166.1 	"/>
	<polygon class="st2" points="1176.7,208.3 1180.5,129.5 1149,106.8 1111.9,92 1154.1,142.4 	"/>
</g>
<polygon class="st1" points="240.3,293.4 361.3,248.4 514.3,246.4 593.3,208.4 743.3,179.4 857.3,202.4 980.3,175.4 1209.3,191.4 
	1473.3,234.4 1591.3,229.4 1864.5,286.8 "/>
</svg>
