<?xml version="1.0" encoding="utf-8"?>
<!-- Generator: Adobe Illustrator 24.3.0, SVG Export Plug-In . SVG Version: 6.00 Build 0)  -->
<svg version="1.1" id="Laag_1" xmlns="http://www.w3.org/2000/svg" xmlns:xlink="http://www.w3.org/1999/xlink" x="0px" y="0px"
	 viewBox="0 0 1022.3 614.4" style="enable-background:new 0 0 1022.3 614.4;" xml:space="preserve">
<style type="text/css">
	.st0{fill:#7AC144;}
	.st1{fill:#9E6F6A;}
	.st2{fill:#DCF8FF;}
	.st3{fill:#95E8E6;}
	.st4{fill:#B0EF73;}
	.st5{fill:#8FC69E;}
	.st6{fill:#FFCE61;}
	.st7{fill:#FF8E66;}
	.st8{fill:#FFD400;}
	.st9{fill:#45998F;}
	.st10{fill:#CCBCBA;}
	.st11{fill:#FF6C61;}
</style>
<polygon class="st4" points="-425.6,892.9 -317.7,828.9 -282,781.1 -157.3,742.7 -46.6,693.7 40.7,624 155,541.2 253.2,514.6 
	294.9,476.2 414.3,368.8 536.1,355.2 720,322 914.2,290.1 1008.6,238.1 1182.4,190.6 1265.1,195 1356,158.4 1500.4,528.3 
	-411.1,918.3 "/>
<polygon class="st0" points="-191,843.6 -95.6,756.6 45.5,697.5 104.6,632.7 232.8,549.7 347.2,528.5 451.2,457.4 669.5,386.6 
	930.5,327.8 1243.2,235.6 1440.9,559.2 "/>
</svg>
