<?xml version="1.0" encoding="utf-8"?>
<!-- Generator: Adobe Illustrator 24.3.0, SVG Export Plug-In . SVG Version: 6.00 Build 0)  -->
<svg version="1.1" id="Laag_1" xmlns="http://www.w3.org/2000/svg" xmlns:xlink="http://www.w3.org/1999/xlink" x="0px" y="0px"
	 viewBox="0 0 1022.3 614.4" style="enable-background:new 0 0 1022.3 614.4;" xml:space="preserve">
<style type="text/css">
	.st0{fill:#7AC144;}
	.st1{fill:#9E6F6A;}
	.st2{fill:#DCF8FF;}
	.st3{fill:#95E8E6;}
	.st4{fill:#B0EF73;}
	.st5{fill:#8FC69E;}
	.st6{fill:#FFCE61;}
	.st7{fill:#FF8E66;}
	.st8{fill:#FFD400;}
	.st9{fill:#45998F;}
	.st10{fill:#CCBCBA;}
	.st11{fill:#FF6C61;}
</style>
<g>
	<polygon class="st0" points="332.4,511.9 311.3,476 298.4,420.6 283.8,391.5 278.7,352.9 289.5,389.2 305.6,419.6 320.7,471.2 
		346.9,508 	"/>
	<polygon class="st0" points="356.8,502.1 337,464.7 327.5,436.4 312.7,409.2 305,378.2 292.7,359.5 309.9,376.3 317.8,405.3 
		336.9,436.3 345.3,464.2 372,499.8 	"/>
	<polygon class="st0" points="378.4,492.4 391.3,489.1 383.1,459.3 359.7,427.1 353.8,403 335.9,375.2 334.7,360.6 334.8,339.7 
		330.3,356.7 330.2,377.5 344.6,403.9 350.7,430.7 369.4,458.2 	"/>
	<polygon class="st0" points="317.3,519 311.8,498.5 300.9,478.3 294.3,447.9 279.5,425.4 273.8,399.4 257.9,371.7 269,399.4 
		275,428.2 288.9,451 291.9,481.9 303.7,506.5 306,521.6 	"/>
	<polygon class="st0" points="402.9,482.6 390.4,456.4 386.6,439.9 367.8,414.4 359.1,385.8 358.2,353 362.3,384.4 373.5,412.1 
		393.5,438.1 398.4,455.1 415.4,478.5 	"/>
	<path class="st0" d="M299.1,523l-5.9-12.7l-2.4-11.7l-9.6-19.9l-2.6-20.3l-15.5-20.7l-13.8-4.7l-9.4,2.2l7.2,0.3l11.1,5.8
		l13.4,17.6l2.1,22.9c0,0,10.3,19.6,10.6,20.3s6.1,26.9,6.1,26.9L299.1,523z"/>
	<polygon class="st0" points="284.7,532.1 279.3,510.8 269,493 264.8,471.1 253.1,459.4 241.7,458.5 235,465.1 241.7,462.4 
		249.8,463.1 258.8,473.6 262.5,496.4 271.2,514 275.4,538.2 	"/>
	<polygon class="st0" points="430,472.6 421.2,441.1 409.2,418.5 391.4,400.2 386.9,382.1 388.7,365.3 382.7,381 386,403.3 
		404.6,421.3 414.5,445.7 418.7,477.2 	"/>
</g>
<polygon class="st4" points="-425.6,892.9 -317.7,828.9 -282,781.1 -157.3,742.7 -46.6,693.7 40.7,624 155,541.2 253.2,514.6 
	294.9,476.2 414.3,368.8 536.1,355.2 720,322 914.2,290.1 1008.6,238.1 1182.4,190.6 1265.1,195 1356,158.4 1500.4,528.3 
	-411.1,918.3 "/>
<g>
	<polygon class="st5" points="689.7,409.9 727.1,394.5 749.6,358 811.8,353.7 744.5,327.4 708.6,350.9 	"/>
	<polygon class="st5" points="675.8,412.2 611,409.3 584.9,386.8 537.3,397.8 572.7,362.3 628.5,363.2 	"/>
	<polygon class="st5" points="690.3,385.7 700.7,331.8 743.6,289.6 681.2,305 671.2,339 	"/>
	<polygon class="st5" points="673.1,392.9 641.9,303.4 596.7,292.3 548.7,292.5 618.3,329.7 	"/>
</g>
<polygon class="st0" points="-191,843.6 -95.6,756.6 45.5,697.5 104.6,632.7 232.8,549.7 347.2,528.5 451.2,457.4 669.5,386.6 
	930.5,327.8 1243.2,235.6 1440.9,559.2 "/>
</svg>
