<?xml version="1.0" encoding="utf-8"?>
<!-- Generator: Adobe Illustrator 24.3.0, SVG Export Plug-In . SVG Version: 6.00 Build 0)  -->
<svg version="1.1" id="Laag_1" xmlns="http://www.w3.org/2000/svg" xmlns:xlink="http://www.w3.org/1999/xlink" x="0px" y="0px"
	 viewBox="0 0 1022.3 614.4" style="enable-background:new 0 0 1022.3 614.4;" xml:space="preserve">
<style type="text/css">
	.st0{fill:#7AC144;}
	.st1{fill:#9E6F6A;}
	.st2{fill:#DCF8FF;}
	.st3{fill:#95E8E6;}
	.st4{fill:#B0EF73;}
	.st5{fill:#8FC69E;}
	.st6{fill:#FFCE61;}
	.st7{fill:#FF8E66;}
	.st8{fill:#FFD400;}
	.st9{fill:#45998F;}
	.st10{fill:#CCBCBA;}
	.st11{fill:#FF6C61;}
</style>
<g>
	<polygon class="st0" points="332.4,511.9 311.3,476 298.4,420.6 283.8,391.5 278.7,352.9 289.5,389.2 305.6,419.6 320.7,471.2 
		346.9,508 	"/>
	<polygon class="st0" points="356.8,502.1 337,464.7 327.5,436.4 312.7,409.2 305,378.2 292.7,359.5 309.9,376.3 317.8,405.3 
		336.9,436.3 345.3,464.2 372,499.8 	"/>
	<polygon class="st0" points="378.4,492.4 391.3,489.1 383.1,459.3 359.7,427.1 353.8,403 335.9,375.2 334.7,360.6 334.8,339.7 
		330.3,356.7 330.2,377.5 344.6,403.9 350.7,430.7 369.4,458.2 	"/>
	<polygon class="st0" points="317.3,519 311.8,498.5 300.9,478.3 294.3,447.9 279.5,425.4 273.8,399.4 257.9,371.7 269,399.4 
		275,428.2 288.9,451 291.9,481.9 303.7,506.5 306,521.6 	"/>
	<polygon class="st0" points="402.9,482.6 390.4,456.4 386.6,439.9 367.8,414.4 359.1,385.8 358.2,353 362.3,384.4 373.5,412.1 
		393.5,438.1 398.4,455.1 415.4,478.5 	"/>
	<path class="st0" d="M299.1,523l-5.9-12.7l-2.4-11.7l-9.6-19.9l-2.6-20.3l-15.5-20.7l-13.8-4.7l-9.4,2.2l7.2,0.3l11.1,5.8
		l13.4,17.6l2.1,22.9c0,0,10.3,19.6,10.6,20.3s6.1,26.9,6.1,26.9L299.1,523z"/>
	<polygon class="st0" points="284.7,532.1 279.3,510.8 269,493 264.8,471.1 253.1,459.4 241.7,458.5 235,465.1 241.7,462.4 
		249.8,463.1 258.8,473.6 262.5,496.4 271.2,514 275.4,538.2 	"/>
	<polygon class="st0" points="430,472.6 421.2,441.1 409.2,418.5 391.4,400.2 386.9,382.1 388.7,365.3 382.7,381 386,403.3 
		404.6,421.3 414.5,445.7 418.7,477.2 	"/>
</g>
<g id="plant_3_">
	<polygon class="st0" points="991.9,386.8 937.4,325.4 868,283 803,272 872.8,264.4 944.8,300.9 1015.2,372.5 	"/>
	<polygon class="st0" points="1007.8,339.6 1018.7,263.4 1018.4,194.3 1062.4,150.3 1099.5,134.2 1052.1,131 997.2,196.8 992,275.5 
			"/>
	<polygon class="st0" points="986,319.4 971.8,277.6 901.4,195 817,163 890.6,210 955.1,294.2 	"/>
	<polygon class="st0" points="977.8,259.6 973.4,219.7 981.4,158.6 956.8,111.3 961.8,155 949.5,221 	"/>
</g>
<polygon class="st4" points="-425.6,892.9 -317.7,828.9 -282,781.1 -157.3,742.7 -46.6,693.7 40.7,624 155,541.2 253.2,514.6 
	294.9,476.2 414.3,368.8 536.1,355.2 720,322 914.2,290.1 1008.6,238.1 1182.4,190.6 1265.1,195 1356,158.4 1500.4,528.3 
	-411.1,918.3 "/>
<g>
	<polygon class="st5" points="689.7,409.9 727.1,394.5 749.6,358 811.8,353.7 744.5,327.4 708.6,350.9 	"/>
	<polygon class="st5" points="675.8,412.2 611,409.3 584.9,386.8 537.3,397.8 572.7,362.3 628.5,363.2 	"/>
	<polygon class="st5" points="690.3,385.7 700.7,331.8 743.6,289.6 681.2,305 671.2,339 	"/>
	<polygon class="st5" points="673.1,392.9 641.9,303.4 596.7,292.3 548.7,292.5 618.3,329.7 	"/>
</g>
<g>
	<polygon class="st3" points="67,535.9 71.6,532.7 80.7,539.8 83.6,551 78.3,555.3 70.4,548.6 	"/>
	<polygon class="st3" points="63.4,537.2 56.5,534.9 50.4,545.4 49.5,554.6 53.1,561.8 60.3,555.8 64,548.5 	"/>
	<polygon class="st3" points="51.5,534 42.1,545 33,545.1 32.8,535 41,531.7 48.3,530.1 	"/>
	<polygon class="st3" points="52,516.3 43.8,511.1 37.3,506.5 37.7,497.5 47.7,498.2 51.9,504.4 54.7,512.6 	"/>
	<polygon class="st3" points="60.6,512.8 66.2,513.7 71.2,497.8 63.8,487 55.9,495.4 	"/>
	<polygon class="st3" points="70.8,513.4 74.3,519.5 86.1,514.8 90.7,506.3 89,500.9 79.6,501.6 	"/>
	<polygon class="st3" points="74.3,530.4 74.4,524.9 83.8,520.9 94.6,523.5 99,530.1 90.5,534.8 	"/>
	<polygon class="st8" points="70.9,522.9 68.8,530 62.3,534.2 55.9,532 51.5,527 54,521.2 57.2,515.3 66.1,517.4 	"/>
	<polygon class="st3" points="49.4,526 49.7,520.7 41.5,516.1 31.1,515.6 26.3,519.8 31.9,526.8 37.9,526.9 	"/>
	<polygon class="st9" points="67.7,551.3 73.3,554.6 80,585.3 95.7,602.6 112.9,642.4 99.6,645.6 88.9,606.9 73.1,584.1 	"/>
	<polygon class="st9" points="99.4,600.4 99.7,584.1 109,576.9 112.3,568.3 117.5,558.3 121.5,576.9 113.8,591.7 	"/>
</g>
<g>
	<polygon class="st9" points="315.3,558.5 351.1,528.7 363.1,480.9 430,454.7 346.9,449.1 315.7,487.2 	"/>
	<polygon class="st9" points="300.8,565.8 228.6,585 192.2,569.3 143.7,597.8 170.3,546.6 231.9,528.3 	"/>
	<polygon class="st9" points="307.6,531.8 300.5,469 333,407.8 269.7,446.3 270.5,487.1 	"/>
	<polygon class="st9" points="291.1,545.6 226.1,458.1 172.6,461.5 119.9,478.3 209.2,495 	"/>
</g>
<polygon class="st0" points="-191,843.6 -95.6,756.6 45.5,697.5 104.6,632.7 232.8,549.7 347.2,528.5 451.2,457.4 669.5,386.6 
	930.5,327.8 1243.2,235.6 1440.9,559.2 "/>
<g>
	<polygon class="st10" points="185.8,348.8 193.6,329.7 211.7,320.7 227.4,327.8 209.3,336.8 	"/>
	<polygon class="st10" points="181,350.6 173.4,333.4 155.1,329.2 143.6,338.9 	"/>
	<polygon class="st6" points="176.5,353.4 190,351.9 196.1,355.6 198.8,367 190.2,374.3 178.4,368.5 176.1,358.7 	"/>
	<polygon class="st1" points="185.7,372.1 196.7,358.2 196.1,355.6 192.9,353.7 181.9,370.2 	"/>
</g>
</svg>
